<svg width="24" height="24" viewBox="0 0 24 24" fill="none" xmlns="http://www.w3.org/2000/svg">
    <path fill-rule="evenodd" clip-rule="evenodd" d="M4.015 12.5H5.5v2H2V13C2 7.477 6.477 3 12 3s10 4.477 10 10v1.5h-3.5v-2h1.485a7.957 7.957 0 0 0-1.452-4.119l-.826.826-1.414-1.414.888-.889A7.967 7.967 0 0 0 13 5.062V6.5h-2V5.062a7.965 7.965 0 0 0-4.121 1.792l5.778 5.389-.002.001a1 1 0 1 1-1.41 1.41l-.002.003-5.39-5.778A7.964 7.964 0 0 0 4.016 12.5zM8 17.5a.5.5 0 0 0-1 0v3a.5.5 0 0 0 1 0v-3zm3 0a.5.5 0 0 0-1 0v3a.5.5 0 0 0 1 0v-3zm2.5-.5a.5.5 0 0 1 .5.5v3a.5.5 0 0 1-1 0v-3a.5.5 0 0 1 .5-.5zm3.5.5a.5.5 0 0 0-1 0v3a.5.5 0 0 0 1 0v-3z" fill="#33A5FF"/>
</svg>
