<svg width="16" height="16" viewBox="0 0 16 16" fill="none" xmlns="http://www.w3.org/2000/svg">
    <path fill-rule="evenodd" clip-rule="evenodd" d="M6 2a1 1 0 0 1 1-1h2a1 1 0 0 1 1 1v1.416c.345.15.67.34.969.56l1.227-.708a1 1 0 0 1 1.366.366l1 1.732a1 1 0 0 1-.366 1.366l-1.227.709a5.04 5.04 0 0 1 0 1.119l1.227.708a1 1 0 0 1 .366 1.366l-1 1.732a1 1 0 0 1-1.366.366l-1.227-.708c-.3.22-.624.41-.969.56V14a1 1 0 0 1-1 1H7a1 1 0 0 1-1-1v-1.416c-.345-.15-.67-.34-.969-.56l-1.227.708a1 1 0 0 1-1.366-.366l-1-1.732a1 1 0 0 1 .366-1.366L3.03 8.56a5.055 5.055 0 0 1 0-1.12l-1.227-.708a1 1 0 0 1-.366-1.366l1-1.732a1 1 0 0 1 1.366-.366l1.227.709c.3-.222.624-.41.969-.561V2zm2 8a2 2 0 1 0 0-4 2 2 0 0 0 0 4z" fill="#fff"/>
</svg>
