<svg width="24" height="24" viewBox="0 0 24 24" fill="none" xmlns="http://www.w3.org/2000/svg">
    <g clip-path="url(#9jvrnzlpra)" fill="#99A2B9">
        <path d="M10 14h4v2a1 1 0 0 1-1 1h-2a1 1 0 0 1-1-1v-2z"/>
        <path d="M13 16v5h-2v-5z"/>
        <path fill-rule="evenodd" clip-rule="evenodd" d="M0 9.634A10 10 0 0 1 1.66 4l1.276.845a8.469 8.469 0 0 0 .112 9.508l-1.257.875a10 10 0 0 1-1.79-5.594zM3 9.6a7 7 0 0 1 1.161-3.944l1.206.797a5.555 5.555 0 0 0 .073 6.237l-1.186.825A7 7 0 0 1 3 9.6zM24 9.366A10 10 0 0 1 22.34 15l-1.276-.845a8.468 8.468 0 0 0-.112-9.508l1.257-.875a10 10 0 0 1 1.79 5.594zM21 9.4a7 7 0 0 1-1.162 3.944l-1.205-.797a5.554 5.554 0 0 0-.073-6.237l1.186-.825A7 7 0 0 1 21 9.4zM12 5a5 5 0 1 0 0 10 5 5 0 0 0 0-10zm0 8a3 3 0 1 0 0-6 3 3 0 0 0 0 6z"/>
        <circle cx="12" cy="10" r="1"/>
        <circle cx="12" cy="5" r="1"/>
    </g>
    <defs>
        <clipPath id="9jvrnzlpra">
            <path fill="#fff" d="M0 0h24v24H0z"/>
        </clipPath>
    </defs>
</svg>
