<svg width="24" height="24" viewBox="0 0 24 24" fill="none" xmlns="http://www.w3.org/2000/svg">
    <path fill-rule="evenodd" clip-rule="evenodd" d="M6.707 10c.29-.811.871-1.63 1.674-2.335C9.554 6.635 11.028 6 12.3 6c3.45 0 6.2 2.713 6.2 6s-2.75 6-6.2 6a6.294 6.294 0 0 1-4.031-1.44 1 1 0 1 0-1.277 1.54A8.294 8.294 0 0 0 12.3 20c4.502 0 8.2-3.555 8.2-8s-3.698-8-8.2-8c-1.873 0-3.799.897-5.24 2.163C5.913 7.173 4.96 8.518 4.628 10H3.102a.5.5 0 0 0-.376.83l2.398 2.74a.5.5 0 0 0 .752 0l2.399-2.74a.5.5 0 0 0-.377-.83h-1.19z" fill="#616C8B"/>
</svg>
