<svg width="24" height="24" viewBox="0 0 24 24" fill="none" xmlns="http://www.w3.org/2000/svg">
    <path fill-rule="evenodd" clip-rule="evenodd" d="M9 4a1 1 0 0 1 1-1h4a1 1 0 0 1 1 1v.582c.813.329 1.56.788 2.215 1.351l.494-.279a1.022 1.022 0 0 1 1.378.37l1.741 2.953a.979.979 0 0 1-.363 1.354l-.577.326a8.052 8.052 0 0 1 0 2.686l.577.327c.481.271.643.877.363 1.353l-1.741 2.954c-.28.476-.898.64-1.378.37l-.494-.28A8 8 0 0 1 15 19.419V20a1 1 0 0 1-1 1h-4a1 1 0 0 1-1-1v-.581a7.999 7.999 0 0 1-2.215-1.352l-.494.28a1.022 1.022 0 0 1-1.378-.37l-1.741-2.954a.979.979 0 0 1 .362-1.354l.578-.326a8.052 8.052 0 0 1 0-2.685l-.578-.327a.979.979 0 0 1-.363-1.354l1.741-2.954c.28-.476.898-.64 1.379-.369l.494.28A8 8 0 0 1 9 4.581V4zm3 13a5 5 0 1 0 0-10 5 5 0 0 0 0 10z" fill="#7B86A4"/>
    <circle cx="12" cy="12" r="2" stroke="#7B86A4" stroke-width="2"/>
</svg>
