<svg width="32" height="32" viewBox="0 0 32 32" fill="none" xmlns="http://www.w3.org/2000/svg">
    <path fill-rule="evenodd" clip-rule="evenodd" d="m21.257 23.023 5.169 5.169 1.766-1.766-5.169-5.169 3.042-3.042-11.061-3.212 3.211 11.062 3.042-3.042zm-2.824 5.652a1 1 0 0 1-1.667-.428l-4.19-14.432a1 1 0 0 1 1.24-1.24l14.431 4.19a1 1 0 0 1 .428 1.668l-2.824 2.824 4.462 4.462a1 1 0 0 1 0 1.414l-3.18 3.18a1 1 0 0 1-1.414 0l-4.462-4.462-2.824 2.824z" fill="#7B86A4"/>
    <path d="M24 11.5V5a1 1 0 0 0-1-1H5a1 1 0 0 0-1 1v19a1 1 0 0 0 1 1h6.5" stroke="#7B86A4" stroke-width="2"/>
</svg>
