<svg width="16" height="16" viewBox="0 0 16 16" fill="none" xmlns="http://www.w3.org/2000/svg">
    <mask id="7cb2rxw84a" fill="#fff">
        <path d="M10.762 4.215c.27-.466.872-.631 1.293-.295a6.5 6.5 0 1 1-8.11 0c.421-.336 1.023-.171 1.292.295.27.467.1 1.056-.298 1.418a4.55 4.55 0 1 0 6.122 0c-.399-.362-.568-.951-.299-1.418z"/>
    </mask>
    <path d="M10.762 4.215c.27-.466.872-.631 1.293-.295a6.5 6.5 0 1 1-8.11 0c.421-.336 1.023-.171 1.292.295.27.467.1 1.056-.298 1.418a4.55 4.55 0 1 0 6.122 0c-.399-.362-.568-.951-.299-1.418z" stroke="#fff" stroke-width="2" mask="url(#7cb2rxw84a)"/>
    <rect x="7" y="1" width="2" height="6" rx="1" fill="#fff"/>
</svg>
