<svg width="18" height="18" viewBox="0 0 18 18" fill="none" xmlns="http://www.w3.org/2000/svg">
    <path fill-rule="evenodd" clip-rule="evenodd" d="M0 8.362A7.368 7.368 0 0 1 1.224 4.21l.94.623a6.24 6.24 0 0 0 .083 7.006l-.926.645A7.369 7.369 0 0 1 0 8.362zm2.21-.026a5.158 5.158 0 0 1 .856-2.906l.889.587a4.093 4.093 0 0 0 .054 4.596l-.874.608a5.158 5.158 0 0 1-.924-2.885zM17.684 8.164a7.368 7.368 0 0 1-1.222 4.152l-.941-.622a6.24 6.24 0 0 0-.083-7.007l.926-.644a7.368 7.368 0 0 1 1.32 4.121zm-2.21.026a5.158 5.158 0 0 1-.856 2.907l-.888-.588a4.092 4.092 0 0 0-.055-4.595l.875-.609c.59.848.911 1.853.923 2.885z" fill="#fff"/>
    <rect x="8" y="8" width="2" height="2" rx="1" fill="#fff"/>
    <path fill-rule="evenodd" clip-rule="evenodd" d="M7.5 3a1 1 0 0 1 1-1h1a1 1 0 0 1 1 1v.474H12a1 1 0 0 1 1 1v7a1 1 0 0 1-1 1h-1V13a1 1 0 0 1-1 1v2H8v-2a1 1 0 0 1-1-1v-.526H6a1 1 0 0 1-1-1v-7a1 1 0 0 1 1-1h1.5V3zM7 9a2 2 0 1 1 4 0 2 2 0 0 1-4 0zm2-5a1 1 0 1 0 0 2 1 1 0 0 0 0-2z" fill="#fff"/>
</svg>
