<svg width="24" height="24" viewBox="0 0 24 24" fill="none" xmlns="http://www.w3.org/2000/svg">
    <path d="M20 5.5 16 9V2l4 3.5z" fill="#008FFF"/>
    <mask id="ccyf6u4ksa" style="mask-type:alpha" maskUnits="userSpaceOnUse" x="2" y="4" width="15" height="14">
        <path d="M16.5 4.5H2v13h1V17l2-2 11.5-8.5v-2z" fill="#008FFF"/>
    </mask>
    <g mask="url(#ccyf6u4ksa)">
        <path fill-rule="evenodd" clip-rule="evenodd" d="M2 12.5a8 8 0 0 1 8-8h7c4.418 0 7 3.582 7 8a8 8 0 0 1-8 8h-6a7.98 7.98 0 0 1-6-2.708A7.97 7.97 0 0 1 2 12.5zm8-6a6 6 0 1 0 0 12h6a6 6 0 0 0 6-6c0-3.314-1.686-6-5-6h-7z" fill="#008FFF"/>
    </g>
    <path d="M4 18.5 8 15v7l-4-3.5z" fill="#008FFF"/>
    <mask id="528nlc9arb" style="mask-type:alpha" maskUnits="userSpaceOnUse" x="7" y="6" width="15" height="14">
        <path d="M7.5 19.5H22v-13h-1V7l-2 2-11.5 8.5v2z" fill="#008FFF"/>
    </mask>
    <g mask="url(#528nlc9arb)">
        <path fill-rule="evenodd" clip-rule="evenodd" d="M22 11.5a8 8 0 0 1-8 8H7c-4.418 0-7-3.582-7-8a8 8 0 0 1 8-8h6a7.98 7.98 0 0 1 6 2.708 7.97 7.97 0 0 1 2 5.292zm-8 6a6 6 0 0 0 0-12H8a6 6 0 0 0-6 6c0 3.314 1.686 6 5 6h7z" fill="#008FFF"/>
    </g>
</svg>
