<svg width="18" height="18" viewBox="0 0 18 18" fill="none" xmlns="http://www.w3.org/2000/svg">
    <g clip-path="url(#fqdfwl6l3a)">
        <path d="M10 0a1 1 0 0 1 1 1v.252c.733.189 1.425.48 2.062.856l.18-.18c.39-.39 1.025-.39 1.415 0l1.414 1.415a1 1 0 0 1 0 1.414l-.18.18c.376.636.668 1.329.857 2.063H17a1 1 0 0 1 1 1v2a1 1 0 0 1-1 1h-.252a7.949 7.949 0 0 1-.857 2.063l.18.18a1 1 0 0 1 0 1.414l-1.414 1.414c-.39.39-1.024.39-1.415 0l-.18-.18a7.948 7.948 0 0 1-2.062.856V17a1 1 0 0 1-1 1H8a1 1 0 0 1-1-1v-.253a7.95 7.95 0 0 1-2.063-.856l-.18.18a1 1 0 0 1-1.414 0l-1.414-1.415a1 1 0 0 1 0-1.414l.18-.18A7.949 7.949 0 0 1 1.251 11H1a1 1 0 0 1-1-1V8a1 1 0 0 1 1-1h.252a7.95 7.95 0 0 1 .856-2.063l-.18-.18a1 1 0 0 1 0-1.413L3.344 1.93a1 1 0 0 1 1.414 0l.18.178A7.951 7.951 0 0 1 7 1.252V1a1 1 0 0 1 1-1h2zm.32 3.146a6.003 6.003 0 0 0-3.329.199 5.995 5.995 0 0 0-1.917 1.12l-1.641-.99.992 1.647c-.048.056-.096.111-.142.169a6.003 6.003 0 0 0 1.593 8.831c.968.59 2.084.894 3.218.876l-.019-1.157a4.844 4.844 0 0 1-4.915-5l.024-.34a4.846 4.846 0 0 1 .88-2.32L9.2 13.045l3.8-3.8-6.872-4.143a4.846 4.846 0 0 1 3.936-.826c.893.202 1.71.652 2.358 1.298.45.45.803.985 1.046 1.569l-.694-.457a.5.5 0 0 0-.55.835l2.188 1.443 1.443-2.189a.5.5 0 0 0-.835-.55l-.418.632a6.001 6.001 0 0 0-4.283-3.71zM9 8a1 1 0 1 1 0 2 1 1 0 0 1 0-2z" fill="#fff"/>
    </g>
    <defs>
        <clipPath id="fqdfwl6l3a">
            <path fill="#fff" d="M0 0h18v18H0z"/>
        </clipPath>
    </defs>
</svg>
