<svg width="24" height="24" viewBox="0 0 24 24" fill="none" xmlns="http://www.w3.org/2000/svg">
    <g clip-path="url(#5g4vpkvo7a)">
        <path d="M13.667 8c.552 0 1 .448 1 1v6.334a.666.666 0 0 0 1.333 0v-5.1a9.332 9.332 0 0 1 5.333 8.433V20h1.334a1.334 1.334 0 0 1 0 2.667H1.333a1.333 1.333 0 0 1 0-2.667h1.334v-1.333A9.332 9.332 0 0 1 8 10.234v5.1a.667.667 0 0 0 1.333 0V9c0-.552.448-1 1-1h3.334zm-1.458-5.001c1.436-.01 2.84.43 4.012 1.259l-.987 1.395a5.155 5.155 0 0 0-6.01.044l-1.007-1.38a6.863 6.863 0 0 1 3.992-1.318zM12.149 0a9.804 9.804 0 0 1 5.524 1.626l-.886 1.339a8.197 8.197 0 0 0-9.204.108l-.917-1.318A9.804 9.804 0 0 1 12.149 0z" fill="#B8BDCD"/>
    </g>
    <defs>
        <clipPath id="5g4vpkvo7a">
            <path fill="#fff" d="M0 0h24v24H0z"/>
        </clipPath>
    </defs>
</svg>
