<svg width="24" height="24" viewBox="0 0 24 24" fill="none" xmlns="http://www.w3.org/2000/svg">
    <g clip-path="url(#saaxx6vnea)">
        <path d="M13.667 8a1 1 0 0 1 1 1v6.334a.666.666 0 0 0 1.333 0v-5.1a9.332 9.332 0 0 1 5.333 8.433V20h1.334a1.334 1.334 0 0 1 0 2.667H1.333a1.333 1.333 0 0 1 0-2.667h1.334v-1.333A9.332 9.332 0 0 1 8 10.234v5.1a.667.667 0 0 0 1.333 0V9a1 1 0 0 1 1-1h3.334zm-1.458-5.001c1.436-.01 2.84.43 4.012 1.259l-.987 1.394a5.154 5.154 0 0 0-6.01.044l-1.007-1.38a6.863 6.863 0 0 1 3.992-1.317zm-.06-3a9.805 9.805 0 0 1 5.524 1.626l-.886 1.34a8.198 8.198 0 0 0-9.204.108l-.917-1.318a9.805 9.805 0 0 1 5.483-1.756z" fill="#fff"/>
    </g>
    <defs>
        <clipPath id="saaxx6vnea">
            <path fill="#fff" d="M0 0h24v24H0z"/>
        </clipPath>
    </defs>
</svg>
