<svg width="18" height="18" viewBox="0 0 18 18" fill="none" xmlns="http://www.w3.org/2000/svg">
    <g clip-path="url(#8ukk6juywa)" fill="#fff">
        <path d="M10 6a1 1 0 0 1 1 1v4.5a.5.5 0 0 0 1 0V7.675A7 7 0 0 1 16 14v1h1a1 1 0 1 1 0 2H1a1 1 0 1 1 0-2h1v-1a7 7 0 0 1 4-6.325V11.5a.5.5 0 0 0 1 0V7a1 1 0 0 1 1-1h2zM12.59 2.224a6.149 6.149 0 0 0-6.902.082L5 1.316a7.353 7.353 0 0 1 8.255-.096l-.664 1.004zM11.427 4.24a3.867 3.867 0 0 0-4.508.033l-.755-1.036a5.147 5.147 0 0 1 6.002-.044l-.74 1.047z"/>
    </g>
    <defs>
        <clipPath id="8ukk6juywa">
            <path fill="#fff" d="M0 0h18v18H0z"/>
        </clipPath>
    </defs>
</svg>
