<svg width="24" height="24" viewBox="0 0 24 24" fill="none" xmlns="http://www.w3.org/2000/svg">
    <g clip-path="url(#satn97cx4a)">
        <path d="M13.667 0a1 1 0 0 1 1 1v.669a10.6 10.6 0 0 1 2.749 1.143l.477-.476a1 1 0 0 1 1.414 0l2.357 2.357a1 1 0 0 1 0 1.414l-.477.476a10.6 10.6 0 0 1 1.144 2.75H23a1 1 0 0 1 1 1v3.334a1 1 0 0 1-1 1h-.669a10.6 10.6 0 0 1-1.143 2.75l.476.477a1 1 0 0 1 0 1.414l-2.357 2.356a1 1 0 0 1-1.414 0l-.477-.477c-.848.502-1.77.891-2.749 1.143V23a1 1 0 0 1-1 1h-3.334a1 1 0 0 1-1-1v-.67a10.598 10.598 0 0 1-2.75-1.142l-.476.476a1 1 0 0 1-1.414 0l-2.357-2.357a1 1 0 0 1 0-1.414l.476-.477a10.6 10.6 0 0 1-1.143-2.749H1a1 1 0 0 1-1-1v-3.334a1 1 0 0 1 1-1h.669a10.6 10.6 0 0 1 1.143-2.749l-.476-.476a1.001 1.001 0 0 1 0-1.415l2.357-2.356a1 1 0 0 1 1.414 0l.475.475c.849-.502 1.772-.891 2.751-1.143V1a1 1 0 0 1 1-1h3.334zm.093 4.195a8 8 0 0 0-4.438.266l-.265.099a7.998 7.998 0 0 0-2.294 1.392L4.577 4.635l1.32 2.19a8.004 8.004 0 0 0-.186.23l-.171.225a8.002 8.002 0 0 0-1.497 3.896l-.024.282a8.002 8.002 0 0 0 .813 4.093l.13.252a8.002 8.002 0 0 0 7.163 4.195l-.024-1.543a6.46 6.46 0 0 1-6.542-6.892l.02-.229A6.457 6.457 0 0 1 6.75 8.241l5.517 9.15 5.066-5.066-9.162-5.523a6.45 6.45 0 0 1 1.453-.807l.214-.08a6.459 6.459 0 0 1 3.582-.214l.222.054a6.458 6.458 0 0 1 4.424 4.039l-1.125-.742a.501.501 0 0 0-.55.835l2.778 1.833 1.833-2.779a.501.501 0 0 0-.835-.55l-.625.946a8.002 8.002 0 0 0-5.783-5.142zM12 10.667a1.333 1.333 0 1 1 0 2.665 1.333 1.333 0 0 1 0-2.665z" fill="#B8BDCD"/>
    </g>
    <defs>
        <clipPath id="satn97cx4a">
            <path fill="#fff" d="M0 0h24v24H0z"/>
        </clipPath>
    </defs>
</svg>
