<svg width="24" height="24" viewBox="0 0 24 24" fill="none" xmlns="http://www.w3.org/2000/svg">
    <path fill-rule="evenodd" clip-rule="evenodd" d="M17 5a2 2 0 0 0-2-2H3a2 2 0 0 0-2 2v14a2 2 0 0 0 2 2h12a2 2 0 0 0 2-2V5zM5 7v10.384h2.435v-3.579h1.349l1.907 3.579h2.669l-2.17-3.96c1.158-.513 1.818-1.54 1.818-2.963 0-2.126-1.437-3.446-3.784-3.461H5zm3.725 4.87h-1.29V8.994h1.29c1.144 0 1.76.484 1.76 1.466 0 .968-.616 1.408-1.76 1.408zM23.666 12.15a9.803 9.803 0 0 1-1.626 5.523l-1.339-.885a8.197 8.197 0 0 0-.108-9.205l1.318-.917a9.803 9.803 0 0 1 1.755 5.484zm-3 .06a6.862 6.862 0 0 1-1.258 4.01l-1.395-.986a5.153 5.153 0 0 0-.044-6.01l1.38-1.007a6.863 6.863 0 0 1 1.318 3.992z" fill="#fff"/>
</svg>
