<svg width="28" height="28" viewBox="0 0 28 28" fill="none" xmlns="http://www.w3.org/2000/svg">
    <rect width="28" height="28" rx="14" fill="#F43855"/>
    <g clip-path="url(#a2sxfa2cka)" fill-rule="evenodd" clip-rule="evenodd" fill="#fff">
        <path d="M18 9a1 1 0 0 0-1-1H7a1 1 0 0 0-1 1v10a1 1 0 0 0 1 1h10a1 1 0 0 0 1-1V9zm-9 1.212V18h1.826v-2.684h1.012L13.268 18h2.002l-1.628-2.97c.869-.385 1.364-1.155 1.364-2.222 0-1.595-1.078-2.585-2.838-2.596H9zm2.794 3.652h-.968v-2.156h.968c.858 0 1.32.363 1.32 1.1 0 .726-.462 1.056-1.32 1.056zM23 14.113a7.353 7.353 0 0 1-1.22 4.142l-1.004-.664a6.15 6.15 0 0 0-.081-6.903l.988-.688A7.352 7.352 0 0 1 23 14.113zm-2.25.044a5.147 5.147 0 0 1-.944 3.008l-1.047-.74a3.865 3.865 0 0 0-.032-4.507l1.035-.755c.635.87.98 1.917.988 2.994z"/>
    </g>
    <defs>
        <clipPath id="a2sxfa2cka">
            <path fill="#fff" transform="translate(5 5)" d="M0 0h18v18H0z"/>
        </clipPath>
    </defs>
</svg>
