<svg width="28" height="28" viewBox="0 0 28 28" fill="none" xmlns="http://www.w3.org/2000/svg">
    <rect width="28" height="28" rx="14" fill="#fff" fill-opacity=".9"/>
    <path d="M18 8a2 2 0 0 1 2 2v8a2 2 0 0 1-2 2H8a2 2 0 0 1-2-2v-8a2 2 0 0 1 2-2h10zm-4.88 2.124c-2.069-.011-3.664 1.42-3.675 3.982.011 2.563 1.573 4.004 3.674 4.004 2.112 0 3.3-1.43 3.454-2.816l-1.848-.021c-.143.77-.726 1.22-1.562 1.23-1.122-.01-1.837-.824-1.848-2.397.01-1.506.715-2.386 1.87-2.376.858-.01 1.43.495 1.54 1.298h1.848c-.198-1.859-1.584-2.915-3.454-2.904zM20 12l2-2v8l-2-2v-4z" fill="#008FFF"/>
</svg>
