<svg width="18" height="18" viewBox="0 0 18 18" fill="none" xmlns="http://www.w3.org/2000/svg">
    <path d="M13 3a2 2 0 0 1 2 2v8a2 2 0 0 1-2 2H3a2 2 0 0 1-2-2V5a2 2 0 0 1 2-2h10zM8.12 5.124c-2.069-.011-3.664 1.42-3.675 3.982.011 2.563 1.573 4.004 3.674 4.004 2.112 0 3.3-1.43 3.454-2.816l-1.848-.021c-.144.77-.726 1.22-1.562 1.23-1.122-.01-1.837-.824-1.849-2.397.011-1.506.716-2.386 1.87-2.376.859-.01 1.43.495 1.54 1.298h1.85c-.199-1.859-1.585-2.915-3.455-2.904zM15 7l2-2v8l-2-2V7z" fill="#fff"/>
</svg>
