<svg width="18" height="18" viewBox="0 0 18 18" fill="none" xmlns="http://www.w3.org/2000/svg">
    <g clip-path="url(#kld4sxh5ja)" fill="#fff">
        <path d="M12 3a1 1 0 0 1 1 1v10a1 1 0 0 1-1 1H2a1 1 0 0 1-1-1V4a1 1 0 0 1 1-1h10zM4 5.212V13h1.826v-2.684h1.012L8.268 13h2.002l-1.628-2.97c.869-.385 1.364-1.155 1.364-2.222 0-1.595-1.078-2.585-2.838-2.596H4zm2.794 1.496c.858 0 1.32.363 1.32 1.1 0 .726-.462 1.056-1.32 1.056h-.968V6.708h.968zM15.776 12.59a6.149 6.149 0 0 0-.081-6.902L16.683 5a7.352 7.352 0 0 1 .097 8.255l-1.004-.664zm-2.017-1.164a3.867 3.867 0 0 0-.032-4.508l1.035-.755a5.147 5.147 0 0 1 .044 6.002l-1.047-.74z"/>
    </g>
    <defs>
        <clipPath id="kld4sxh5ja">
            <path fill="#fff" d="M0 0h18v18H0z"/>
        </clipPath>
    </defs>
</svg>
