<svg width="28" height="28" viewBox="0 0 28 28" fill="none" xmlns="http://www.w3.org/2000/svg">
    <rect width="28" height="28" rx="14" fill="#fff" fill-opacity=".9"/>
    <g clip-path="url(#jmi9flpo4a)" fill="#008FFF">
        <path d="M17 8a1 1 0 0 1 1 1v10a1 1 0 0 1-1 1H7a1 1 0 0 1-1-1V9a1 1 0 0 1 1-1h10zm-8 2.212V18h1.826v-2.684h1.012L13.268 18h2.002l-1.628-2.97c.869-.385 1.364-1.155 1.364-2.222 0-1.595-1.078-2.585-2.838-2.596H9zm2.794 1.496c.858 0 1.32.363 1.32 1.1 0 .726-.462 1.056-1.32 1.056h-.968v-2.156h.968zM20.776 17.59a6.149 6.149 0 0 0-.081-6.902l.988-.688a7.352 7.352 0 0 1 .097 8.255l-1.004-.664zm-2.017-1.164a3.867 3.867 0 0 0-.032-4.508l1.035-.755a5.147 5.147 0 0 1 .044 6.002l-1.047-.74z"/>
    </g>
    <defs>
        <clipPath id="jmi9flpo4a">
            <path fill="#fff" transform="translate(5 5)" d="M0 0h18v18H0z"/>
        </clipPath>
    </defs>
</svg>
