<svg width="192" height="53" viewBox="0 0 192 53" fill="none" xmlns="http://www.w3.org/2000/svg">
    <path d="M183.502 38.16v-4.32h-1.8v-2.12h1.8v-4.14h2.46v10.58h-2.46zm-1.28-3.06.22 2.08c-2.08.38-3.82.42-6.54.42h-1.26v-9.2h6.92v2.08h-4.38v1.46h3.74v2h-3.74v1.58c1.94-.02 3.38-.12 5.04-.42zm-2.48 5.98v2.36h7.3v-2.36h-7.3zm-2.6 4.42v-6.48h12.48v6.48h-12.48zm9.98-18.18h2.5V38.3h-2.5V27.32zM171.623 35.96l-1.12 2.22c-3.2-.64-5.56-2.42-6.74-4.76-1.18 2.34-3.52 4.14-6.72 4.76l-1.12-2.22c4.14-.7 6.44-3.62 6.44-6.26v-1.32h2.82v1.32c0 2.7 2.28 5.56 6.44 6.26zm-16.1 5.38h16.68v2.14h-16.68v-2.14zM144.265 28.72v2.68c0 3.42 1.46 6.78 4.58 8.12l-1.5 2.14c-2.12-.96-3.54-2.78-4.36-5.04-.82 2.46-2.32 4.44-4.52 5.48l-1.58-2.18c3.22-1.38 4.74-4.94 4.74-8.52v-2.68h2.64zm5.48-1.44h2.64v18.48h-2.64V27.28zM120.915 33.74v-3.52h-3.6v3.52h3.6zm2.6-5.58v7.66h-8.78v-7.66h8.78zm-4.34 14.1v1.2h10.06v2.04h-12.68v-5.14h9.54v-1.1h-9.56v-2.04h12.16v5.04h-9.52zm9.52-11.42h2.42V33h-2.42v3.5h-2.64v-9.2h2.64v3.54zM106.217 34.94l.26 2.08c-2.26.5-4.36.6-8.44.6h-1.54v-8.86h8.24v2.1h-5.62v4.64c3.28-.02 5.1-.14 7.1-.56zm-5.16 4.28v4.08h9.9v2.1h-12.54v-6.18h2.64zm9.24-6.9h2.44v2.16h-2.44v6.14h-2.64V27.3h2.64v5.02zM80.138 32.8c0 1.42.98 2.28 2.34 2.28 1.36 0 2.36-.86 2.36-2.28 0-1.44-1-2.28-2.36-2.28-1.36 0-2.34.84-2.34 2.28zm10.02-1h-2.92c.06.32.1.64.1 1 0 .34-.04.66-.12 1h2.94v-2zm0 4.1h-4.1c-.88.88-2.14 1.4-3.58 1.4-2.72 0-4.84-1.9-4.84-4.5 0-2.62 2.12-4.52 4.84-4.52 1.48 0 2.74.54 3.62 1.42h4.06v-2.4h2.64v10.8h-2.64v-2.2zm-3.6 7.8c2.42 0 3.72-.52 3.72-1.6s-1.3-1.6-3.72-1.6-3.7.52-3.7 1.6 1.28 1.6 3.7 1.6zm0-5.24c3.9 0 6.32 1.34 6.32 3.64 0 2.28-2.42 3.62-6.32 3.62-3.88 0-6.3-1.34-6.3-3.62 0-2.3 2.42-3.64 6.3-3.64zM67.32 29.74c-2.3 0-3.76.58-3.76 1.72 0 1.14 1.46 1.72 3.76 1.72 2.34 0 3.78-.58 3.78-1.72 0-1.14-1.44-1.72-3.78-1.72zm0 5.54c-3.96 0-6.62-1.48-6.62-3.82 0-2.32 2.66-3.82 6.62-3.82 3.98 0 6.62 1.5 6.62 3.82 0 2.34-2.64 3.82-6.62 3.82zm-3.7 4.6v3.42h10.24v2.1H60.94v-5.52h2.68zM59 36.24h16.68v2.1h-6.84v3.16h-2.7v-3.16H59v-2.1z" fill="#fff"/>
    <path d="M154.149 10.507V8.89h3.55V7.379h2.004V8.89h3.38v1.616h-3.668l3.804 3.944-1.257 1.199-3.278-3.475-3.21 3.753-1.291-1.216 3.788-4.205h-3.822zm11.499 5.716v-3.527h-2.65v-1.65h2.65V7.552h1.885v8.67h-1.885zm.595 3.528c0 .52-.108 1.013-.323 1.477a3.972 3.972 0 0 1-.832 1.198c-.351.348-.77.62-1.257.817a3.766 3.766 0 0 1-1.529.313 3.847 3.847 0 0 1-1.529-.313 3.769 3.769 0 0 1-1.256-.816 4.216 4.216 0 0 1-.85-1.2 3.624 3.624 0 0 1-.305-1.476c0-.522.101-1.008.305-1.46.215-.463.498-.869.85-1.216.351-.348.769-.62 1.256-.817a3.846 3.846 0 0 1 1.529-.313c.544 0 1.053.104 1.529.313a3.776 3.776 0 0 1 2.089 2.033c.215.452.323.938.323 1.46zm-1.852-.018c0-.579-.209-1.077-.628-1.494a1.991 1.991 0 0 0-1.478-.626c-.566 0-1.053.209-1.461.626a2.065 2.065 0 0 0-.611 1.494c0 .591.204 1.095.611 1.512a2 2 0 0 0 1.461.608 2.02 2.02 0 0 0 1.478-.608c.419-.417.628-.921.628-1.512zM147.016 20.914h-8.068v-7.089h6.012v-3.614h-6.012V8.508h7.898v7.003h-6.03v3.718h6.2v1.685zm2.768-13.362h1.885v15.5h-1.885v-15.5zM129.419 13.669V9.55h-6.454V7.865h8.306v5.804h-1.852zm2.701 1.477v1.685h-9.834v-1.685h3.074v-3.458h1.868v3.458h4.892zm3.04 2.589h-1.885V7.552h1.885v4.17h1.936v1.755h-1.936v4.258zm-11.804 5.056v-4.657h1.885v2.954h10.191v1.703h-12.076zM107.781 17.387v-9.07h11.668v1.685h-9.8v1.999h9.732v1.65h-9.732v2.05h9.851v1.686h-4.942v2.815h6.029v1.703H106.66v-1.703h6.012v-2.815h-4.891zM103.568 7.865v4.622h-1.885V9.568h-9.8V7.865h11.685zm-6.76 9.818v-2.26h-6.012v-1.702h13.927v1.703h-6.03v2.259h4.909v5.404h-1.885v-3.719h-9.97v-1.685h5.061zM75.917 9.69V8.004h11.957V9.69h-5.197l5.673 4.76-1.257 1.27-5.197-4.38-5.198 4.38-1.257-1.27 5.673-4.76h-5.197zm-.985 9.226v-1.702h13.927v1.703h-6.03v4.135h-1.885v-4.136h-6.012zM65.913 10.958c0-.556-.198-1.02-.595-1.39a1.885 1.885 0 0 0-1.375-.573c-.533 0-.997.19-1.393.573-.385.37-.578.834-.578 1.39 0 .545.193 1.008.578 1.39.396.37.86.556 1.393.556.532 0 .99-.185 1.375-.556a1.86 1.86 0 0 0 .595-1.39zm1.817 0c0 .498-.102.962-.306 1.39-.203.429-.47.811-.798 1.147a3.93 3.93 0 0 1-1.223.765c-.453.185-.94.278-1.46.278-.521 0-1.014-.093-1.478-.278a3.984 3.984 0 0 1-1.206-.765 4.222 4.222 0 0 1-.798-1.147 3.195 3.195 0 0 1-.306-1.39c0-.498.102-.961.306-1.39.203-.44.47-.828.798-1.164.351-.324.753-.58 1.206-.765a3.948 3.948 0 0 1 1.478-.278c.52 0 1.007.093 1.46.278.465.186.872.44 1.223.765.329.336.595.724.798 1.164.204.429.306.892.306 1.39zm1.342 5.908h-4.008v2.346h-1.886v-2.346H59v-1.703h10.072v1.703zm1.206-9.314h1.868v11.834h-1.868v-5.717h-2.106V12h2.106V7.552zm-10.242 15.24V18.36h1.868v2.746h10.43v1.685H60.035z" fill="#008FFF"/>
    <g filter="url(#ut838r80ba)">
        <path d="M36.297 25.1c-3.425-2.377-7.808-1.408-10.108 2.166-1.923 2.985-4.824 3.356-5.949 3.356-3.66 0-6.167-2.63-6.91-5.353h-.002c-.006-.027-.013-.05-.02-.076-.006-.03-.016-.06-.023-.093-.293-1.135-.365-1.678-.365-2.885 0-6.51 6.54-13.759 15.96-13.759 9.645 0 15.165 7.5 16.587 11.668-.026-.073-.048-.146-.073-.222C42.658 11.75 35.088 5.89 26.178 5.89c-11.217 0-20.311 9.287-20.311 20.743 0 10.24 7.233 19.007 17.264 19.007 8 0 13.377-4.582 15.843-10.896 1.355-3.452.395-7.511-2.677-9.644z" fill="#003964"/>
    </g>
    <g filter="url(#6ev5et5nub)">
        <path d="M46.035 20.623c-1.192-3.97-6.78-11.79-16.796-11.79-9.466 0-16.039 7.079-16.039 13.437 0 1.179.073 1.71.367 2.818a5.852 5.852 0 0 1-.188-1.445c0-6.621 6.679-11.21 13.546-11.21 9.296 0 16.83 7.48 16.83 16.703 0 7.232-4.192 13.49-10.286 16.498l.003.005c7.854-2.823 13.461-10.288 13.461-19.055 0-2.075-.28-3.904-.898-5.961z" fill="#ED1A3B"/>
    </g>
    <defs>
        <filter id="ut838r80ba" x="1.867" y="1.889" width="47.6" height="47.75" filterUnits="userSpaceOnUse" color-interpolation-filters="sRGB">
            <feFlood flood-opacity="0" result="BackgroundImageFix"/>
            <feColorMatrix in="SourceAlpha" values="0 0 0 0 0 0 0 0 0 0 0 0 0 0 0 0 0 0 127 0" result="hardAlpha"/>
            <feOffset/>
            <feGaussianBlur stdDeviation="2"/>
            <feComposite in2="hardAlpha" operator="out"/>
            <feColorMatrix values="0 0 0 0 0.27 0 0 0 0 0.6291 0 0 0 0 0.9 0 0 0 1 0"/>
            <feBlend in2="BackgroundImageFix" result="effect1_dropShadow_178_5826"/>
            <feBlend in="SourceGraphic" in2="effect1_dropShadow_178_5826" result="shape"/>
        </filter>
        <filter id="6ev5et5nub" x="9.2" y="4.833" width="41.733" height="44.806" filterUnits="userSpaceOnUse" color-interpolation-filters="sRGB">
            <feFlood flood-opacity="0" result="BackgroundImageFix"/>
            <feColorMatrix in="SourceAlpha" values="0 0 0 0 0 0 0 0 0 0 0 0 0 0 0 0 0 0 127 0" result="hardAlpha"/>
            <feOffset/>
            <feGaussianBlur stdDeviation="2"/>
            <feComposite in2="hardAlpha" operator="out"/>
            <feColorMatrix values="0 0 0 0 1 0 0 0 0 0.233333 0 0 0 0 0.353238 0 0 0 1 0"/>
            <feBlend in2="BackgroundImageFix" result="effect1_dropShadow_178_5826"/>
            <feBlend in="SourceGraphic" in2="effect1_dropShadow_178_5826" result="shape"/>
        </filter>
    </defs>
</svg>
