<svg width="24" height="24" viewBox="0 0 24 24" fill="none" xmlns="http://www.w3.org/2000/svg">
    <path fill-rule="evenodd" clip-rule="evenodd" d="M3 3a2 2 0 0 0-2 2v14a2 2 0 0 0 2 2h15a2 2 0 0 0 2-2V5a2 2 0 0 0-2-2H3zm7.843 5.595c1.226-.016 2.043.743 2.2 1.947h2.64C15.4 7.754 13.42 6.17 10.749 6.186 7.794 6.17 5.516 8.315 5.5 12.159c.016 3.844 2.247 6.006 5.249 6.006 3.017 0 4.714-2.145 4.934-4.224l-2.64-.033c-.204 1.155-1.037 1.832-2.232 1.848-1.602-.017-2.624-1.238-2.64-3.597.016-2.26 1.022-3.58 2.672-3.564z" fill="#B8BDCD"/>
    <path d="m20 9 3-3v12l-3-3V9z" fill="#B8BDCD"/>
</svg>
