<svg width="18" height="18" viewBox="0 0 18 18" fill="none" xmlns="http://www.w3.org/2000/svg">
    <path fill-rule="evenodd" clip-rule="evenodd" d="M0 4a2 2 0 0 1 2-2h14a2 2 0 0 1 2 2v10a2 2 0 0 1-2 2H2a2 2 0 0 1-2-2V4zm16.649 1.202v1.27H9.333v-1.27h2.965V4.068h1.366v1.134h2.985zm-7.628 7.96v-1.27h3.277v-1.078c-1.463-.17-2.34-.873-2.34-1.984 0-1.247 1.16-1.995 3.023-1.995 1.844 0 3.024.748 3.024 1.995 0 1.1-.897 1.814-2.341 1.984v1.077H17v1.27H9.02zm2.36-4.332c-.01.533.527.76 1.6.748 1.054.012 1.61-.215 1.6-.748.01-.533-.546-.748-1.6-.748-1.073 0-1.61.215-1.6.748zm-2.968 2.585V4H7.048v7.415h1.365zM3.068 5.519c0 1.315-.546 2.71-2.068 3.266l.702 1.27C2.727 9.668 3.4 8.874 3.79 7.888c.38.907 1.034 1.621 2.01 1.984l.702-1.247c-1.483-.533-2.01-1.814-2.01-3.107v-.952H3.068v.952zm-.566 5.148V14h6.126v-1.293h-4.74v-2.04H2.501z" fill="#fff"/>
</svg>
