<svg width="18" height="18" viewBox="0 0 18 18" fill="none" xmlns="http://www.w3.org/2000/svg">
    <g clip-path="url(#7in4t3t3da)" fill-rule="evenodd" clip-rule="evenodd" fill="#48C560">
        <path d="M13 4a1 1 0 0 0-1-1H2a1 1 0 0 0-1 1v10a1 1 0 0 0 1 1h10a1 1 0 0 0 1-1V4zM4 5.212V13h1.826v-2.684h1.012L8.268 13h2.002l-1.628-2.97c.869-.385 1.364-1.155 1.364-2.222 0-1.595-1.078-2.585-2.838-2.596H4zm2.794 3.652h-.968V6.708h.968c.858 0 1.32.363 1.32 1.1 0 .726-.462 1.056-1.32 1.056zM18 9.113a7.353 7.353 0 0 1-1.22 4.142l-1.004-.664a6.149 6.149 0 0 0-.082-6.903L16.683 5A7.352 7.352 0 0 1 18 9.113zm-2.25.044a5.147 5.147 0 0 1-.944 3.008l-1.046-.74a3.865 3.865 0 0 0-.033-4.507l1.035-.755c.635.87.98 1.917.988 2.994z"/>
    </g>
    <defs>
        <clipPath id="7in4t3t3da">
            <path fill="#fff" d="M0 0h18v18H0z"/>
        </clipPath>
    </defs>
</svg>
