<svg width="18" height="18" viewBox="0 0 18 18" fill="none" xmlns="http://www.w3.org/2000/svg">
    <path fill-rule="evenodd" clip-rule="evenodd" d="M3 3a2 2 0 0 0-2 2v8a2 2 0 0 0 2 2h10a2 2 0 0 0 2-2V5a2 2 0 0 0-2-2H3zm5.185 3.73c.858-.011 1.43.495 1.54 1.298h1.848c-.198-1.859-1.584-2.915-3.454-2.904-2.068-.011-3.663 1.419-3.674 3.982.01 2.563 1.573 4.004 3.674 4.004 2.112 0 3.3-1.43 3.454-2.816l-1.848-.022c-.143.77-.726 1.221-1.562 1.232-1.122-.011-1.837-.825-1.848-2.398.01-1.507.715-2.387 1.87-2.376z" fill="#008FFF"/>
    <path d="m15 7 2-2v8l-2-2V7z" fill="#008FFF"/>
</svg>
