<svg width="24" height="24" viewBox="0 0 24 24" fill="none" xmlns="http://www.w3.org/2000/svg">
    <path fill-rule="evenodd" clip-rule="evenodd" d="M17 6a2 2 0 0 0-2-2H3a2 2 0 0 0-2 2v12a2 2 0 0 0 2 2h12a2 2 0 0 0 2-2V6zm-11.333.667v10.666h6.666v-2.049H8.062V6.667H5.667zM23.666 12.15a9.803 9.803 0 0 1-1.626 5.523l-1.339-.885a8.198 8.198 0 0 0-.108-9.204l1.318-.917a9.803 9.803 0 0 1 1.755 5.483zm-3 .06a6.862 6.862 0 0 1-1.258 4.01l-1.395-.986a5.153 5.153 0 0 0-.044-6.01l1.38-1.007a6.863 6.863 0 0 1 1.318 3.992z" fill="#fff"/>
</svg>
