<svg width="24" height="24" viewBox="0 0 24 24" fill="none" xmlns="http://www.w3.org/2000/svg">
    <path fill-rule="evenodd" clip-rule="evenodd" d="M1 6a2 2 0 0 1 2-2h18a2 2 0 0 1 2 2v12a2 2 0 0 1-2 2H3a2 2 0 0 1-2-2V6zm16.966 1.193v.83h1.869V6.285h1.721v8.448h-1.721v-2.773h-1.87v.959h-5.287V7.193h5.288zm-3.812 10.521v-3.783H15.9v2.306h5.878v1.477h-7.624zm.221-6.193h1.894V8.644h-1.894v2.877zm3.59-.985h1.87V9.499h-1.87v1.037zm-6.742 2.125V11.21H5.075V7.14h-1.77v5.52h3.073v2.514H2.222v1.451H12.28v-1.451H8.124V12.66h3.1z" fill="#B8BDCD"/>
</svg>
