<svg width="24" height="24" viewBox="0 0 24 24" fill="none" xmlns="http://www.w3.org/2000/svg">
    <path fill-rule="evenodd" clip-rule="evenodd" d="M1 6a2 2 0 0 1 2-2h18a2 2 0 0 1 2 2v12a2 2 0 0 1-2 2H3a2 2 0 0 1-2-2V6zm20.349 1.66v1.45h-8.942V7.66h3.624V6.363h1.67v1.295h3.648zm-9.324 9.096v-1.452h4.006v-1.23c-1.788-.195-2.861-.998-2.861-2.268 0-1.426 1.419-2.28 3.696-2.28 2.253 0 3.696.854 3.696 2.28 0 1.257-1.097 2.073-2.862 2.267v1.231h4.078v1.452h-9.753zm2.886-4.95c-.012.609.643.868 1.955.855 1.287.013 1.967-.246 1.955-.855.012-.61-.668-.855-1.955-.855-1.312 0-1.967.246-1.955.855zm-3.628 2.954V6.286H9.614v8.474h1.67zM4.75 8.022c0 1.503-.668 3.097-2.528 3.732l.859 1.451c1.251-.44 2.074-1.348 2.55-2.475.466 1.037 1.265 1.853 2.457 2.268l.858-1.426C7.134 10.963 6.49 9.5 6.49 8.022V6.934H4.75v1.088zm-.692 5.883v3.81h7.487v-1.478H5.751v-2.332H4.058z" fill="#fff"/>
</svg>
