<svg width="18" height="18" viewBox="0 0 18 18" fill="none" xmlns="http://www.w3.org/2000/svg">
    <path fill-rule="evenodd" clip-rule="evenodd" d="M0 4a2 2 0 0 1 2-2h14a2 2 0 0 1 2 2v10a2 2 0 0 1-2 2H2a2 2 0 0 1-2-2V4zm13.881.794v.725h1.53V4h1.408v7.392H15.41V8.966h-1.529v.839H9.555V4.794h4.326zM10.762 14v-3.31h1.429v2.018H17V14h-6.238zm.181-5.42h1.55V6.064h-1.55v2.518zm2.938-.861h1.53v-.907h-1.53v.907zm-5.516 1.86v-1.27h-5.03v-3.56h-1.45v4.83h2.516v2.199H1v1.27h8.23v-1.27h-3.4v-2.2h2.535z" fill="#fff"/>
</svg>
